{
  "accessors": [
    {
      "bufferView": 2,
      "componentType": 5126,
      "count": 65532,
      "max": [
        6.398745536804199,
        12.991771697998047,
        11.233915328979492
      ],
      "min": [
        -4.684540271759033,
        -9.63029670715332,
        1.728245496749878
      ],
      "type": "VEC3"
    },
    {
      "bufferView": 2,
      "byteOffset": 786384,
      "componentType": 5126,
      "count": 65532,
      "max": [
        1.0,
        1.0,
        1.0
      ],
      "min": [
        -1.0,
        -1.0,
        -1.0
      ],
      "type": "VEC3"
    },
    {
      "bufferView": 3,
      "componentType": 5126,
      "count": 65532,
      "max": [
        1.0,
        0.9999993443489075,
        0.999994158744812,
        1.0
      ],
      "min": [
        -0.9999974370002747,
        -0.9999970197677612,
        -0.9999962449073792,
        -1.0
      ],
      "type": "VEC4"
    },
    {
      "bufferView": 1,
      "componentType": 5126,
      "count": 65532,
      "max": [
        0.9929683804512024,
        0.9801634550094604
      ],
      "min": [
        0.15790487825870514,
        0.005292624235153198
      ],
      "type": "VEC2"
    },
    {
      "bufferView": 0,
      "componentType": 5125,
      "count": 359163,
      "type": "SCALAR"
    },
    {
      "bufferView": 2,
      "byteOffset": 1572768,
      "componentType": 5126,
      "count": 65532,
      "max": [
        4.984333038330078,
        11.302508354187012,
        8.86932373046875
      ],
      "min": [
        -6.416637420654297,
        -11.094888687133789,
        1.7870244979858398
      ],
      "type": "VEC3"
    },
    {
      "bufferView": 2,
      "byteOffset": 2359152,
      "componentType": 5126,
      "count": 65532,
      "max": [
        0.9999998807907104,
        1.0,
        1.0
      ],
      "min": [
        -0.9999998807907104,
        -1.0,
        -1.0
      ],
      "type": "VEC3"
    },
    {
      "bufferView": 3,
      "byteOffset": 1048512,
      "componentType": 5126,
      "count": 65532,
      "max": [
        1.0,
        0.9998405575752258,
        0.9999573826789856,
        1.0
      ],
      "min": [
        -1.0,
        -0.9999986290931702,
        -0.9999375939369202,
        -1.0
      ],
      "type": "VEC4"
    },
    {
      "bufferView": 1,
      "byteOffset": 524256,
      "componentType": 5126,
      "count": 65532,
      "max": [
        0.9868345856666565,
        0.9757243394851685
      ],
      "min": [
        0.007569491863250732,
        0.029908867552876472
      ],
      "type": "VEC2"
    },
    {
      "bufferView": 0,
      "byteOffset": 1436652,
      "componentType": 5125,
      "count": 364053,
      "type": "SCALAR"
    },
    {
      "bufferView": 2,
      "byteOffset": 3145536,
      "componentType": 5126,
      "count": 34037,
      "max": [
        4.986427307128906,
        13.514740943908691,
        14.038446426391602
      ],
      "min": [
        -4.986427307128906,
        -11.094888687133789,
        1.7156956195831299
      ],
      "type": "VEC3"
    },
    {
      "bufferView": 2,
      "byteOffset": 3553980,
      "componentType": 5126,
      "count": 34037,
      "max": [
        1.0,
        0.9999986290931702,
        1.0
      ],
      "min": [
        -1.0,
        -1.0,
        -1.0
      ],
      "type": "VEC3"
    },
    {
      "bufferView": 3,
      "byteOffset": 2097024,
      "componentType": 5126,
      "count": 34037,
      "max": [
        1.0,
        0.9998804330825806,
        0.9999982118606567,
        1.0
      ],
      "min": [
        -1.0,
        -0.9999848008155823,
        -0.9999983310699463,
        -1.0
      ],
      "type": "VEC4"
    },
    {
      "bufferView": 1,
      "byteOffset": 1048512,
      "componentType": 5126,
      "count": 34037,
      "max": [
        0.9518900513648987,
        0.9889305830001831
      ],
      "min": [
        0.014953553676605225,
        0.03629918396472931
      ],
      "type": "VEC2"
    },
    {
      "bufferView": 0,
      "byteOffset": 2892864,
      "componentType": 5125,
      "count": 185520,
      "type": "SCALAR"
    }
  ],
  "asset": {
    "extras": {
      "author": "alexshupp (https://sketchfab.com/alexshupp)",
      "license": "CC-BY-4.0 (http://creativecommons.org/licenses/by/4.0/)",
      "source": "https://sketchfab.com/3d-models/herman-miller-eames-lounge-chair-d8a999565942444d844afd39dbaf5425",
      "title": "Herman Miller Eames Lounge Chair"
    },
    "generator": "Sketchfab-15.70.0",
    "version": "2.0"
  },
  "bufferViews": [
    {
      "buffer": 0,
      "byteLength": 3634944,
      "name": "floatBufferViews",
      "target": 34963
    },
    {
      "buffer": 0,
      "byteLength": 1320808,
      "byteOffset": 3634944,
      "byteStride": 8,
      "name": "floatBufferViews",
      "target": 34962
    },
    {
      "buffer": 0,
      "byteLength": 3962424,
      "byteOffset": 4955752,
      "byteStride": 12,
      "name": "floatBufferViews",
      "target": 34962
    },
    {
      "buffer": 0,
      "byteLength": 2641616,
      "byteOffset": 8918176,
      "byteStride": 16,
      "name": "floatBufferViews",
      "target": 34962
    }
  ],
  "buffers": [
    {
      "byteLength": 11559792,
      "uri": "scene.bin"
    }
  ],
  "images": [
    {
      "uri": "textures/lambert1_baseColor.png"
    },
    {
      "uri": "textures/lambert1_metallicRoughness.png"
    },
    {
      "uri": "textures/lambert1_normal.png"
    }
  ],
  "materials": [
    {
      "doubleSided": true,
      "name": "lambert1",
      "normalTexture": {
        "index": 2
      },
      "pbrMetallicRoughness": {
        "baseColorTexture": {
          "index": 0
        },
        "metallicRoughnessTexture": {
          "index": 1
        }
      }
    }
  ],
  "meshes": [
    {
      "name": "Chair_low_lambert1_0",
      "primitives": [
        {
          "attributes": {
            "NORMAL": 1,
            "POSITION": 0,
            "TANGENT": 2,
            "TEXCOORD_0": 3
          },
          "indices": 4,
          "material": 0,
          "mode": 4
        }
      ]
    },
    {
      "name": "Chair_low_lambert1_0",
      "primitives": [
        {
          "attributes": {
            "NORMAL": 6,
            "POSITION": 5,
            "TANGENT": 7,
            "TEXCOORD_0": 8
          },
          "indices": 9,
          "material": 0,
          "mode": 4
        }
      ]
    },
    {
      "name": "Chair_low_lambert1_0",
      "primitives": [
        {
          "attributes": {
            "NORMAL": 11,
            "POSITION": 10,
            "TANGENT": 12,
            "TEXCOORD_0": 13
          },
          "indices": 14,
          "material": 0,
          "mode": 4
        }
      ]
    }
  ],
  "nodes": [
    {
      "children": [
        1
      ],
      "matrix": [
        9.031132698059082,
        0.0,
        0.0,
        0.0,
        0.0,
        2.005314291966061e-15,
        -9.031132698059082,
        0.0,
        0.0,
        9.031132698059082,
        2.005314291966061e-15,
        0.0,
        0.0,
        0.0,
        0.0,
        1.0
      ],
      "name": "Sketchfab_model"
    },
    {
      "children": [
        2
      ],
      "matrix": [
        0.009999999776482582,
        0.0,
        0.0,
        0.0,
        0.0,
        0.0,
        0.009999999776482582,
        0.0,
        0.0,
        -0.009999999776482582,
        0.0,
        0.0,
        0.0,
        0.0,
        0.0,
        1.0
      ],
      "name": "e669bd35a8ce48cc9c017d974464d4a4.fbx"
    },
    {
      "children": [
        3
      ],
      "name": "RootNode"
    },
    {
      "children": [
        4,
        5,
        6
      ],
      "matrix": [
        1.0,
        0.0,
        0.0,
        0.0,
        0.0,
        2.220446049250313e-16,
        -1.0,
        0.0,
        0.0,
        1.0,
        2.220446049250313e-16,
        0.0,
        0.0,
        0.0,
        0.0,
        1.0
      ],
      "name": "Chair_low"
    },
    {
      "mesh": 0,
      "name": "Chair_low_lambert1_0"
    },
    {
      "mesh": 1,
      "name": "Chair_low_lambert1_0"
    },
    {
      "mesh": 2,
      "name": "Chair_low_lambert1_0"
    }
  ],
  "samplers": [
    {
      "magFilter": 9729,
      "minFilter": 9987,
      "wrapS": 10497,
      "wrapT": 10497
    }
  ],
  "scene": 0,
  "scenes": [
    {
      "name": "Sketchfab_Scene",
      "nodes": [
        0
      ]
    }
  ],
  "textures": [
    {
      "sampler": 0,
      "source": 0
    },
    {
      "sampler": 0,
      "source": 1
    },
    {
      "sampler": 0,
      "source": 2
    }
  ]
}
